<svg width="403" height="116" viewBox="0 0 403 116" fill="none" xmlns="http://www.w3.org/2000/svg">
<rect width="402.717" height="116" fill="#393E46"/>
<path d="M97.1962 53.9439V43.1774C97.1962 39.5266 94.3644 36.5575 90.7866 36.2696L80.788 18.8056C79.8614 17.1904 78.3652 16.036 76.5749 15.5566C74.7931 15.0805 72.9298 15.3305 71.335 16.2587L37.0593 36.2135H31.0394C27.1988 36.2135 24.0755 39.3366 24.0755 43.1774V84.9606C24.0755 88.8012 27.1986 91.9245 31.0394 91.9245H90.2323C94.0729 91.9245 97.1962 88.8014 97.1962 84.9606V74.1941C99.2183 73.473 100.678 71.5586 100.678 69.2919V58.8461C100.678 56.5794 99.2183 54.665 97.1962 53.9439ZM86.7406 36.2135H71.5663L82.9472 29.5876L86.7406 36.2135ZM81.2173 26.566L64.6461 36.2135H57.7726L79.4986 23.5643L81.2173 26.566ZM73.0878 19.268C73.875 18.8072 74.7947 18.6848 75.6738 18.9195C76.563 19.1575 77.3043 19.7321 77.7651 20.5363L77.7687 20.5427L50.8528 36.2135H43.9796L73.0878 19.268ZM93.7142 84.9606C93.7142 86.88 92.1517 88.4425 90.2323 88.4425H31.0394C29.12 88.4425 27.5575 86.88 27.5575 84.9606V43.1774C27.5575 41.258 29.12 39.6955 31.0394 39.6955H90.2323C92.1517 39.6955 93.7142 41.258 93.7142 43.1774V53.6232H83.2684C77.5082 53.6232 72.8226 58.3088 72.8226 64.069C72.8226 69.8292 77.5082 74.5148 83.2684 74.5148H93.7142V84.9606V84.9606ZM97.1962 69.2919C97.1962 70.2524 96.4159 71.0329 95.4552 71.0329H83.2684C79.4278 71.0329 76.3045 67.9098 76.3045 64.069C76.3045 60.2284 79.4276 57.1051 83.2684 57.1051H95.4552C96.4157 57.1051 97.1962 57.8854 97.1962 58.8461V69.2919V69.2919Z" fill="#00ADB5"/>
<path d="M83.2684 60.5871C81.349 60.5871 79.7865 62.1496 79.7865 64.069C79.7865 65.9884 81.349 67.5509 83.2684 67.5509C85.1878 67.5509 86.7503 65.9884 86.7503 64.069C86.7505 62.1496 85.188 60.5871 83.2684 60.5871Z" fill="#00ADB5"/>
<path d="M183.632 74.536C183.595 73.864 183.539 73.248 183.464 72.688C183.427 72.0907 183.389 71.6613 183.352 71.4C183.352 71.1013 183.333 70.8587 183.296 70.672C183.296 70.448 183.296 70.2053 183.296 69.944V66.752C183.296 66.1547 183.315 65.1093 183.352 63.616C183.427 62.0853 183.445 60.7973 183.408 59.752C183.408 58.7067 183.315 57.7173 183.128 56.784C182.904 55.4773 182.512 54.544 181.952 53.984C181.392 53.3867 180.533 53.088 179.376 53.088C176.8 53.1253 174.224 54.6933 171.648 57.792C171.76 58.912 171.816 61.0773 171.816 64.288C171.816 66.64 171.872 69.9253 171.984 74.144C172.021 74.8907 171.76 75.544 171.2 76.104C170.677 76.664 170.024 76.9627 169.24 77C168.493 77.0373 167.84 76.7947 167.28 76.272C166.72 75.712 166.421 75.04 166.384 74.256C166.272 70.0373 166.216 66.7147 166.216 64.288V61.488C166.216 61.3013 166.197 60.9093 166.16 60.312C166.16 59.7147 166.141 59.2853 166.104 59.024C166.104 58.7253 166.067 58.352 165.992 57.904C165.955 57.4187 165.899 57.008 165.824 56.672C165.787 56.2987 165.712 55.944 165.6 55.608C165.301 54.5627 164.891 53.8347 164.368 53.424C163.808 52.976 162.968 52.808 161.848 52.92C160.616 53.032 159.552 53.368 158.656 53.928C157.797 54.488 156.92 55.384 156.024 56.616C155.837 56.84 155.632 57.0453 155.408 57.232C155.557 64.6987 155.557 70.392 155.408 74.312C155.371 75.096 155.072 75.7493 154.512 76.272C153.952 76.7947 153.28 77.0373 152.496 77C151.712 76.9627 151.059 76.664 150.536 76.104C150.013 75.544 149.771 74.872 149.808 74.088C149.883 69.944 149.92 67.2933 149.92 66.136C149.92 64.9413 149.864 62.2347 149.752 58.016C149.677 53.76 149.64 51.0347 149.64 49.84C149.64 49.28 149.901 48.72 150.424 48.16C150.984 47.6 151.637 47.32 152.384 47.32C153.131 47.32 153.803 47.5627 154.4 48.048C154.997 48.496 155.277 49.3547 155.24 50.624C156.92 48.6453 158.973 47.544 161.4 47.32C163.976 47.096 166.123 47.6747 167.84 49.056C168.736 49.7653 169.539 50.7547 170.248 52.024C172.563 49.112 175.605 47.544 179.376 47.32C182.139 47.2827 184.36 48.1413 186.04 49.896C187.347 51.4267 188.224 53.3867 188.672 55.776C188.859 56.896 188.971 58.128 189.008 59.472C189.045 60.7787 189.027 62.272 188.952 63.952C188.915 65.5947 188.896 66.528 188.896 66.752V69.832C188.896 70.0187 188.896 70.2053 188.896 70.392C188.933 70.5787 188.952 70.8027 188.952 71.064C188.989 71.288 189.027 71.68 189.064 72.24C189.101 72.8 189.157 73.416 189.232 74.088C189.269 74.872 189.027 75.5627 188.504 76.16C188.019 76.72 187.384 77.0187 186.6 77.056C185.853 77.1307 185.181 76.9253 184.584 76.44C184.024 75.9173 183.707 75.2827 183.632 74.536ZM195.288 88.256C194.504 88.3307 193.814 88.1067 193.216 87.584C192.619 87.0987 192.283 86.464 192.208 85.68C192.134 84.9333 192.339 84.2613 192.824 83.664C193.347 83.0667 193.982 82.7307 194.728 82.656C195.102 82.6187 195.55 82.5813 196.072 82.544C196.595 82.5067 196.931 82.4693 197.08 82.432C197.267 82.432 197.491 82.3947 197.752 82.32C198.014 82.2827 198.219 82.208 198.368 82.096L198.928 81.76C199.824 81.312 200.627 80.0613 201.336 78.008C201.56 77.3733 201.784 76.9253 202.008 76.664C201.747 76.3653 201.542 76.0107 201.392 75.6C200.72 72.7253 199.339 68.4693 197.248 62.832C195.382 57.8667 194 53.8907 193.104 50.904C192.88 50.1573 192.955 49.448 193.328 48.776C193.702 48.104 194.262 47.656 195.008 47.432C195.755 47.208 196.464 47.2827 197.136 47.656C197.808 48.0293 198.256 48.5893 198.48 49.336C199.19 51.7253 200.534 55.5707 202.512 60.872L204.64 66.696C207.254 58.7067 209.643 52.7147 211.808 48.72C212.182 48.048 212.742 47.6 213.488 47.376C214.235 47.152 214.944 47.2267 215.616 47.6C216.288 47.9733 216.736 48.5333 216.96 49.28C217.184 50.0267 217.11 50.736 216.736 51.408C215.766 53.2 214.758 55.384 213.712 57.96C212.667 60.536 211.846 62.7013 211.248 64.456C210.651 66.2107 209.867 68.656 208.896 71.792C208.672 72.5387 208.523 73.0613 208.448 73.36C208.262 73.8453 208 74.816 207.664 76.272C207.254 77.6533 206.918 78.7733 206.656 79.632C205.611 82.544 204.192 84.7093 202.4 86.128C201.878 86.5387 201.355 86.8747 200.832 87.136C200.31 87.4347 199.75 87.64 199.152 87.752C198.592 87.9013 198.144 87.9947 197.808 88.032C197.472 88.1067 196.987 88.144 196.352 88.144C195.755 88.1813 195.4 88.2187 195.288 88.256ZM228.561 77C227.851 77 227.217 76.8133 226.657 76.44C226.097 76.0667 225.723 75.5813 225.537 74.984C224.977 73.0053 223.726 69.104 221.785 63.28C220.105 58.2773 218.873 54.152 218.089 50.904C217.79 50.0453 217.921 49.2613 218.481 48.552C219.078 47.8053 219.881 47.432 220.889 47.432C222.307 47.432 223.203 48.1787 223.577 49.672C224.585 53.368 225.798 57.3067 227.217 61.488C227.777 63.2427 228.15 64.6987 228.337 65.856L229.625 61.936L230.409 59.584C230.371 59.696 230.782 58.408 231.641 55.72C231.865 55.048 232.089 54.3573 232.313 53.648C232.537 52.9013 232.779 52.1547 233.041 51.408C233.675 49.6533 234.795 48.776 236.401 48.776C237.185 48.776 237.819 49 238.305 49.448C238.827 49.896 239.275 50.6427 239.649 51.688C241.403 56.616 243.083 61.8613 244.689 67.424L245.921 62.384C246.219 61.04 246.555 59.584 246.929 58.016C247.675 54.88 248.403 52.0987 249.113 49.672C249.299 48.9627 249.635 48.4027 250.121 47.992C250.606 47.5813 251.147 47.376 251.745 47.376C252.678 47.376 253.406 47.7307 253.929 48.44C254.451 49.1493 254.563 49.9893 254.265 50.96C254.227 51.0347 254.078 51.7067 253.817 52.976C253.406 54.8053 252.939 56.672 252.417 58.576L251.185 63.056C249.766 68.3573 248.739 71.9413 248.105 73.808C247.283 75.936 246.145 77 244.689 77C243.905 77 243.214 76.7573 242.617 76.272C242.019 75.7867 241.571 75.1147 241.273 74.256L240.377 71.512C239.518 68.9733 238.025 64.4747 235.897 58.016L234.945 61.376C233.227 67.2747 232.182 71.064 231.809 72.744C231.473 74.1627 231.025 75.2267 230.465 75.936C229.905 76.6453 229.27 77 228.561 77ZM274.036 76.104C272.692 76.6267 271.161 76.9253 269.444 77C267.764 77.0747 266.196 76.888 264.74 76.44C263.284 75.9547 261.996 75.2267 260.876 74.256C258.935 72.6507 257.684 70.6533 257.124 68.264C256.564 65.8747 256.545 63.728 257.068 61.824C257.591 59.92 258.375 58.072 259.42 56.28C260.503 54.4507 261.66 52.92 262.892 51.688C264.161 50.4187 265.617 49.3547 267.26 48.496C268.903 47.6373 270.62 47.2267 272.412 47.264C274.204 47.264 276.089 47.7493 278.068 48.72C278.367 48.8693 278.684 49.0933 279.02 49.392C279.393 49.6907 279.711 49.952 279.972 50.176L280.7 50.904C280.924 51.128 281.036 51.2587 281.036 51.296C281.633 51.8187 281.951 52.4907 281.988 53.312C282.473 55.552 282.791 57.904 282.94 60.368C283.089 62.832 283.127 65.1467 283.052 67.312C283.015 69.4773 283.052 71.7733 283.164 74.2C283.201 74.9467 282.959 75.6 282.436 76.16C281.913 76.72 281.26 77.0187 280.476 77.056C279.692 77.0933 279.02 76.8507 278.46 76.328C277.9 75.8053 277.601 75.1707 277.564 74.424V73.584C276.444 74.7413 275.268 75.5813 274.036 76.104ZM271.516 71.064C272.076 70.9147 272.524 70.7653 272.86 70.616C273.196 70.4667 273.607 70.2427 274.092 69.944C274.615 69.6453 275.156 69.272 275.716 68.824C276.276 68.376 276.78 67.816 277.228 67.144C277.303 67.0693 277.396 66.9947 277.508 66.92C277.508 61.88 277.191 57.8293 276.556 54.768C276.444 54.6187 276.313 54.488 276.164 54.376C276.052 54.2267 275.959 54.1147 275.884 54.04C275.847 53.9653 275.772 53.9093 275.66 53.872C275.585 53.7973 275.492 53.7227 275.38 53.648C273.588 52.6773 271.703 52.6587 269.724 53.592C267.745 54.488 266.009 56.1867 264.516 58.688C263.023 61.2267 262.276 63.448 262.276 65.352C262.313 67.2187 263.041 68.768 264.46 70C265.319 70.7093 266.383 71.1573 267.652 71.344C268.921 71.5307 270.209 71.4373 271.516 71.064ZM295.507 74.312C295.47 75.096 295.171 75.7493 294.611 76.272C294.051 76.7947 293.379 77.0373 292.595 77C291.811 76.9627 291.158 76.664 290.635 76.104C290.112 75.544 289.87 74.872 289.907 74.088C290.056 69.1227 290.131 65.352 290.131 62.776C290.131 60.2 290.094 56.3547 290.019 51.24C289.944 46.1253 289.907 42.28 289.907 39.704C289.907 38.92 290.168 38.2667 290.691 37.744C291.251 37.184 291.923 36.904 292.707 36.904C293.491 36.904 294.144 37.184 294.667 37.744C295.227 38.2667 295.507 38.92 295.507 39.704C295.507 42.28 295.544 45.9387 295.619 50.68C295.694 55.4213 295.712 59.7333 295.675 63.616C295.675 67.4613 295.619 71.0267 295.507 74.312ZM307.976 74.312C307.938 75.096 307.64 75.7493 307.08 76.272C306.52 76.7947 305.848 77.0373 305.064 77C304.28 76.9627 303.626 76.664 303.104 76.104C302.581 75.544 302.338 74.872 302.376 74.088C302.525 69.1227 302.6 65.352 302.6 62.776C302.6 60.2 302.562 56.3547 302.488 51.24C302.413 46.1253 302.376 42.28 302.376 39.704C302.376 38.92 302.637 38.2667 303.16 37.744C303.72 37.184 304.392 36.904 305.176 36.904C305.96 36.904 306.613 37.184 307.136 37.744C307.696 38.2667 307.976 38.92 307.976 39.704C307.976 42.28 308.013 45.9387 308.088 50.68C308.162 55.4213 308.181 59.7333 308.144 63.616C308.144 67.4613 308.088 71.0267 307.976 74.312ZM328.574 77.28C325.811 77.0933 323.403 76.5333 321.35 75.6C319.296 74.6667 317.728 73.4907 316.646 72.072C315.563 70.6533 314.779 69.3467 314.294 68.152C313.808 66.9573 313.51 65.7813 313.398 64.624C313.286 63.4293 313.342 61.8987 313.566 60.032C313.827 58.464 314.368 56.9147 315.19 55.384C316.048 53.8533 317.168 52.4907 318.55 51.296C319.968 50.064 321.667 49.1307 323.646 48.496C325.624 47.824 327.734 47.6187 329.974 47.88C332.139 48.1413 333.987 48.7387 335.518 49.672C337.048 50.568 338.355 51.7253 339.438 53.144C340.371 54.3387 340.931 55.2347 341.118 55.832C341.342 56.4293 341.528 56.9893 341.678 57.512C341.864 58.0347 342.014 58.4827 342.126 58.856C342.238 59.2293 342.331 59.6213 342.406 60.032C342.518 60.4053 342.592 60.8533 342.63 61.376C342.667 62.0853 342.536 62.7387 342.238 63.336C341.939 63.9333 341.491 64.4 340.894 64.736C340.408 64.9227 339.886 65.016 339.326 65.016L329.75 65.184C323.03 65.2213 319.67 65.296 319.67 65.408H319.502C319.987 67.312 320.995 68.8053 322.526 69.888C324.094 70.9707 326.222 71.6053 328.91 71.792C330.366 71.8667 331.579 71.792 332.55 71.568C333.632 71.2693 334.416 71.008 334.902 70.784C335.387 70.5227 335.984 70.1867 336.694 69.776C337.403 69.5147 338.112 69.552 338.822 69.888C339.531 70.224 340.016 70.7467 340.278 71.456C340.539 72.1653 340.502 72.856 340.166 73.528C339.867 74.2 339.382 74.7227 338.71 75.096C338.112 75.432 337.496 75.7307 336.862 75.992C336.227 76.216 335.294 76.496 334.062 76.832C332.83 77.168 331 77.3173 328.574 77.28ZM319.614 59.92C321.779 59.808 327.398 59.696 336.47 59.584C336.134 58.464 335.592 57.4 334.846 56.392C333.352 54.6747 331.504 53.6853 329.302 53.424C326.987 53.1253 324.952 53.6293 323.198 54.936C321.443 56.2053 320.248 57.8667 319.614 59.92ZM357.233 76.832C357.009 76.7573 356.542 76.6453 355.833 76.496C355.161 76.3467 354.564 76.1787 354.041 75.992C353.556 75.8053 352.977 75.544 352.305 75.208C351.67 74.8347 351.092 74.3493 350.569 73.752C350.046 73.1173 349.598 72.3707 349.225 71.512C348.814 70.504 348.553 68.5253 348.441 65.576C348.329 63.2987 348.31 60.368 348.385 56.784C348.385 56.112 348.404 54.992 348.441 53.424L347.993 53.48C347.209 53.5547 346.518 53.3493 345.921 52.864C345.324 52.3787 344.969 51.7627 344.857 51.016C344.782 50.232 344.988 49.5413 345.473 48.944C345.958 48.3467 346.574 47.992 347.321 47.88L348.609 47.768C348.646 45.7893 348.702 43.792 348.777 41.776C348.814 40.992 349.113 40.3387 349.673 39.816C350.233 39.2933 350.905 39.0507 351.689 39.088C352.473 39.1253 353.126 39.424 353.649 39.984C354.172 40.544 354.414 41.216 354.377 42L354.209 47.32L356.057 47.208C356.841 47.1707 357.513 47.3947 358.073 47.88C358.67 48.3653 358.988 49 359.025 49.784C359.1 50.568 358.894 51.2587 358.409 51.856C357.924 52.416 357.289 52.7333 356.505 52.808L354.041 52.92C354.004 54.712 353.985 56.0187 353.985 56.84C353.91 60.3493 353.929 63.2053 354.041 65.408C354.116 67.648 354.228 68.936 354.377 69.272C354.526 69.608 354.638 69.8507 354.713 70C354.788 70.112 354.918 70.2427 355.105 70.392C355.329 70.504 355.553 70.5787 355.777 70.616C356.001 70.6533 356.412 70.7653 357.009 70.952C357.644 71.1013 358.316 71.3067 359.025 71.568C359.734 71.792 360.257 72.2587 360.593 72.968C360.966 73.64 361.022 74.3493 360.761 75.096C360.537 75.8053 360.07 76.3467 359.361 76.72C358.689 77.056 357.98 77.0933 357.233 76.832Z" fill="#EEEEEE"/>
</svg>
